<?xml version="1.0" standalone="no"?>
<!DOCTYPE svg PUBLIC "-//W3C//DTD SVG 20010904//EN"
 "http://www.w3.org/TR/2001/REC-SVG-20010904/DTD/svg10.dtd">
<svg version="1.0" xmlns="http://www.w3.org/2000/svg"
 width="1024.000000pt" height="1024.000000pt" viewBox="0 0 1024.000000 1024.000000"
 preserveAspectRatio="xMidYMid meet">

<g transform="translate(0.000000,1024.000000) scale(0.100000,-0.100000)"
fill="#000000" stroke="none">
<path d="M3543 8434 c-71 -35 -83 -102 -44 -240 l23 -82 201 -5 c169 -4 219
-9 307 -30 226 -54 381 -132 540 -271 84 -73 112 -81 178 -47 98 50 139 151
93 227 -39 63 -196 176 -361 259 -273 137 -819 247 -937 189z"/>
<path d="M6470 8443 c-78 -8 -231 -36 -322 -59 -305 -77 -560 -214 -756 -406
-205 -201 -372 -505 -411 -749 -6 -35 -11 -200 -11 -366 l0 -301 -77 29 c-394
152 -804 126 -1219 -77 -141 -68 -237 -131 -387 -252 -507 -408 -792 -1064
-764 -1757 14 -323 66 -581 172 -845 182 -453 524 -896 895 -1160 528 -375
1114 -553 1680 -510 276 21 474 65 740 166 680 259 1213 758 1500 1404 129
289 187 529 212 866 38 530 -112 1064 -420 1484 -276 377 -705 658 -1140 746
-319 64 -569 38 -879 -93 -10 -4 -13 58 -13 290 l0 294 238 -1 c259 0 304 6
462 63 205 75 382 208 520 389 100 131 229 439 275 657 16 73 16 83 2 117 -25
60 -65 78 -172 76 -49 0 -106 -3 -125 -5z m-90 -383 c-39 -99 -110 -229 -160
-291 -106 -134 -271 -244 -425 -285 -60 -15 -385 -33 -385 -21 0 16 104 178
147 229 156 186 401 322 708 393 144 34 139 35 115 -25z m-1757 -1709 c149
-39 310 -128 411 -227 l49 -48 -49 -11 c-113 -25 -221 -114 -272 -223 -23 -49
-27 -70 -27 -152 0 -85 3 -102 29 -155 34 -70 125 -164 185 -191 l41 -19 -1
-317 c-1 -251 -3 -318 -14 -318 -7 0 -25 -10 -40 -22 -20 -15 -30 -18 -33 -10
-2 7 -11 12 -19 12 -13 0 -13 -3 -3 -15 10 -13 10 -19 -5 -35 -24 -27 -39 -25
-55 5 -14 26 -30 33 -30 14 0 -6 4 -18 9 -27 10 -19 -13 -50 -24 -32 -4 6 -11
7 -17 4 -6 -4 -6 2 1 15 8 14 8 21 1 21 -5 0 -10 -5 -10 -11 0 -5 -4 -8 -9 -5
-18 11 -41 -6 -41 -30 0 -13 5 -24 11 -24 5 0 7 5 4 10 -3 6 -4 10 -1 10 2 0
11 -13 20 -30 17 -34 15 -37 -10 -13 -16 16 -16 16 -10 -5 4 -12 4 -22 -1 -23
-39 -3 -71 -19 -40 -19 9 0 18 -4 22 -9 3 -6 -4 -9 -15 -8 -11 1 -20 5 -20 9
0 4 -11 3 -24 -3 -16 -8 -22 -18 -20 -35 1 -13 -2 -27 -8 -30 -6 -4 -8 5 -6
22 3 31 -13 41 -34 22 -18 -17 -38 -21 -38 -7 0 8 -5 8 -15 -1 -19 -16 -19 -1
0 20 13 15 13 17 0 17 -8 0 -15 -7 -15 -15 0 -8 -6 -12 -13 -9 -8 3 -14 -4
-15 -16 -1 -18 1 -19 9 -7 8 11 9 9 4 -10 -4 -14 -11 -29 -16 -34 -14 -15 -11
-38 4 -30 6 4 4 -2 -6 -13 -9 -11 -14 -24 -10 -28 5 -5 0 -3 -10 5 -18 14 -18
14 0 21 16 7 16 8 -3 8 -12 1 -25 -6 -28 -15 -7 -19 -26 -9 -25 14 0 14 2 13
9 -3 8 -19 9 -19 9 3 1 12 -6 25 -15 29 -13 5 -13 7 -2 14 10 7 9 9 -4 9 -9 0
-19 8 -23 18 -8 23 -42 61 -86 94 -32 25 -35 32 -37 82 0 31 3 58 8 61 6 4 10
12 10 18 0 7 -4 6 -10 -3 -7 -11 -10 1 -10 40 0 30 -3 242 -6 472 l-6 416 29
16 c42 21 98 87 113 131 29 87 -12 206 -87 257 -149 102 -342 17 -368 -162
-12 -86 41 -194 111 -227 l34 -17 0 -528 0 -528 -42 -27 c-24 -15 -46 -26 -51
-25 -4 1 -6 -1 -6 -5 3 -19 -2 -31 -23 -53 -12 -13 -22 -33 -23 -44 0 -15 -6
-20 -20 -18 -19 2 -19 2 -2 -11 22 -18 23 -83 1 -95 -14 -8 -13 -10 2 -23 10
-8 15 -9 11 -2 -4 6 -2 15 4 19 9 5 10 0 7 -14 -4 -12 -2 -22 3 -22 4 0 6 -7
3 -15 -4 -8 -10 -12 -15 -9 -5 3 -7 10 -4 15 4 5 -4 8 -17 6 -19 -2 -23 3 -25
30 -1 24 2 30 13 26 10 -4 12 0 8 11 -3 9 -11 13 -17 9 -5 -3 -7 -1 -3 5 3 6
2 13 -3 16 -5 3 -11 -7 -14 -22 -3 -15 -1 -30 5 -33 7 -4 6 -9 -1 -13 -8 -5
-8 -13 0 -29 9 -19 9 -20 -4 -5 -9 11 -18 14 -28 7 -19 -12 -29 -11 -29 2 0 5
4 8 9 4 5 -3 16 2 25 10 12 13 13 21 4 40 -6 14 -15 25 -20 25 -5 0 -6 -4 -3
-10 3 -6 -1 -7 -10 -4 -9 4 -24 -1 -35 -11 -18 -16 -20 -16 -37 4 -9 12 -22
21 -27 21 -6 0 -5 -5 2 -12 7 -7 12 -20 12 -31 0 -15 6 -17 38 -13 20 3 31 2
24 -1 -10 -4 -10 -8 -1 -19 15 -18 -17 -32 -34 -15 -9 9 -8 11 7 5 13 -5 17
-3 14 6 -2 7 -21 14 -43 16 -21 2 -42 9 -47 16 -4 7 -8 11 -9 8 0 -3 -2 -15
-5 -28 -2 -14 2 -25 11 -28 8 -4 12 -11 9 -16 -4 -6 -10 -5 -15 3 -8 12 -11
11 -19 -1 -9 -13 -10 -13 -11 0 -1 8 -1 19 0 23 1 4 -6 15 -14 23 -8 9 -13 19
-10 24 3 5 1 11 -5 15 -5 3 -10 13 -10 21 0 8 4 13 8 10 4 -2 8 7 9 22 0 15
-1 19 -4 10 -4 -15 -21 -26 -24 -15 -4 16 -9 714 -5 732 4 14 11 25 18 25 25
0 82 56 104 104 56 120 9 257 -110 318 -56 29 -156 30 -211 1 -144 -76 -181
-268 -73 -380 17 -17 43 -37 59 -43 l28 -12 1 -387 c1 -453 1 -451 12 -451 4
0 8 -5 8 -11 0 -8 -6 -7 -17 2 -15 12 -16 12 -10 -4 4 -11 3 -16 -4 -12 -6 4
-8 13 -5 21 3 7 1 16 -4 19 -6 4 -10 12 -10 18 0 7 4 6 10 -3 8 -12 10 -11 10
6 0 12 -8 25 -17 29 -17 6 -17 8 2 22 16 13 17 15 3 10 -23 -8 -23 9 -1 22 10
5 14 13 9 18 -5 4 -11 2 -13 -4 -3 -9 -10 -10 -24 -3 -21 12 -26 1 -7 -18 15
-15 3 -27 -34 -36 -21 -5 -28 -3 -28 9 0 8 3 14 8 14 4 -1 14 -1 24 0 25 2 10
40 -19 47 -23 6 -27 32 -4 26 6 -1 11 3 11 9 0 6 -7 9 -15 5 -18 -7 -19 5 -2
24 10 12 9 12 -6 0 -10 -7 -16 -19 -13 -27 3 -8 -1 -16 -9 -19 -8 -4 -15 -12
-15 -19 0 -7 -7 -15 -15 -19 -8 -3 -15 -11 -15 -17 0 -7 11 0 25 15 26 28 36
33 33 14 -2 -7 4 -13 12 -14 28 -2 31 -4 24 -15 -4 -8 -9 -7 -15 2 -7 11 -9
11 -9 -1 0 -12 -2 -12 -9 -1 -6 9 -11 10 -15 2 -4 -6 -2 -11 3 -11 6 0 11 -9
11 -19 0 -15 7 -19 35 -18 19 1 35 5 35 10 0 4 5 5 10 2 6 -3 7 -17 4 -30 -3
-12 -1 -26 5 -29 13 -9 15 -36 2 -36 -5 0 -12 11 -15 25 -4 14 -11 23 -16 20
-6 -3 -7 1 -4 9 3 9 1 16 -5 16 -15 0 -14 -33 1 -48 9 -9 9 -12 -2 -12 -9 0
-7 -5 6 -15 18 -14 18 -14 -2 -9 -12 3 -25 0 -30 -7 -5 -8 -3 -11 7 -7 10 4
15 -1 15 -13 0 -14 -3 -16 -15 -6 -12 10 -14 9 -8 -5 5 -14 1 -18 -18 -18 -14
0 -25 5 -25 11 0 5 5 7 11 3 16 -9 28 14 23 43 -3 14 -1 22 5 19 5 -3 11 0 14
8 4 9 -4 18 -21 23 -30 10 -72 6 -72 -6 0 -4 -16 -8 -35 -9 -21 -1 -33 3 -30
8 4 6 10 8 15 5 5 -3 11 -1 15 5 4 6 10 8 14 5 7 -4 61 48 61 59 0 10 -35 -2
-36 -12 -1 -7 -2 -17 -3 -23 0 -6 -7 -9 -13 -6 -7 2 -19 -3 -26 -12 -12 -15
-13 -15 -9 0 3 9 1 22 -3 29 -6 9 0 22 17 38 14 13 23 25 20 28 -3 3 -16 -6
-30 -19 -18 -16 -24 -30 -21 -44 5 -17 -1 -25 -25 -37 -17 -9 -31 -13 -31 -8
0 15 -44 30 -65 22 -11 -4 -26 -3 -32 2 -16 13 -30 -19 -15 -34 7 -7 18 -4 37
10 27 22 50 20 59 -4 3 -8 12 -14 19 -14 8 0 20 -7 27 -15 11 -13 15 -13 21
-3 7 10 9 10 9 -2 0 -13 1 -13 10 0 5 8 12 11 16 8 3 -4 -1 -14 -9 -22 -12
-12 -17 -13 -20 -3 -3 7 -6 5 -6 -5 -1 -10 5 -18 13 -18 7 0 20 -7 27 -16 12
-15 11 -16 -11 -9 -14 4 -26 10 -28 14 -15 35 -30 56 -39 56 -6 0 -15 3 -19 8
-11 10 -24 9 -24 -3 0 -5 7 -10 15 -10 8 0 15 -4 15 -10 0 -5 -10 -10 -23 -10
-13 0 -26 -3 -30 -6 -9 -9 4 -35 14 -28 5 3 6 -2 3 -10 -5 -13 -9 -12 -23 5
-13 16 -23 20 -39 15 -29 -10 -29 -29 1 -21 12 3 17 3 11 -2 -6 -4 -14 -18
-18 -30 -3 -13 -9 -33 -12 -45 -6 -20 -5 -21 10 -9 13 11 11 4 -6 -28 -24 -46
-26 -47 -52 -28 -16 12 -16 14 -2 14 9 0 16 -5 16 -11 0 -6 7 -3 16 6 13 12
14 22 6 52 -6 20 -7 34 -2 31 12 -8 22 27 10 39 -7 7 -14 6 -22 -2 -7 -7 -19
-12 -28 -11 -10 0 -9 3 5 9 17 7 17 9 3 9 -20 1 -26 45 -8 56 6 4 7 12 4 18
-4 7 -4 9 1 5 4 -4 14 -3 22 3 8 8 13 8 13 1 0 -6 -5 -12 -11 -14 -8 -3 -5
-10 6 -21 11 -11 21 -14 29 -9 6 5 19 8 28 7 10 -2 20 1 24 6 3 5 -2 9 -10 9
-9 0 -16 5 -16 10 0 6 4 10 9 10 6 0 13 -4 16 -10 12 -19 22 -10 17 15 -2 14
-9 25 -14 25 -5 0 -7 -4 -4 -9 11 -17 -45 -23 -63 -6 -10 8 -21 12 -25 8 -4
-5 -6 -3 -5 2 2 6 -2 20 -9 33 -9 15 -9 22 -2 22 6 0 8 6 5 13 -4 6 0 4 9 -6
8 -11 12 -26 9 -35 -3 -10 8 -2 26 16 17 18 35 30 41 27 6 -3 7 1 4 10 -4 9
-13 14 -20 11 -8 -3 -18 4 -24 14 -8 14 -8 20 0 20 6 0 18 7 26 15 13 13 19
13 43 0 40 -20 66 -10 68 26 1 16 -2 29 -7 29 -5 0 -7 -7 -4 -15 4 -8 1 -15
-5 -15 -6 0 -11 -8 -11 -17 0 -13 -3 -14 -12 -5 -8 8 -8 15 3 29 13 16 12 16
-15 -1 -23 -15 -30 -16 -37 -5 -5 8 -9 18 -9 22 0 18 -49 -29 -50 -47 0 -15
-3 -17 -11 -9 -8 8 -8 17 0 32 7 12 9 21 6 21 -3 0 -8 0 -12 0 -4 0 -8 -6 -9
-13 0 -6 -2 -16 -2 -20 -1 -5 -15 1 -31 12 -36 26 -45 27 -29 2 7 -11 16 -17
20 -15 16 10 30 -7 18 -21 -14 -17 -5 -35 18 -35 14 0 13 2 -3 13 -13 10 -15
16 -6 21 14 9 43 -12 35 -25 -3 -5 -1 -9 5 -9 5 0 8 -7 7 -15 -1 -9 -6 -14
-12 -13 -5 2 -8 6 -7 10 2 4 -8 7 -22 6 -16 -2 -24 -7 -21 -15 3 -7 0 -13 -6
-13 -9 0 -9 -3 0 -12 18 -18 15 -38 -5 -31 -10 3 -15 3 -11 -2 4 -4 3 -14 -4
-22 -8 -11 -7 -12 6 -7 10 4 16 1 16 -9 0 -10 -7 -13 -20 -10 -22 6 -26 18
-10 28 6 4 4 12 -5 21 -20 21 -21 78 0 70 10 -3 17 3 21 20 8 32 1 39 -17 17
-9 -11 -10 -14 -1 -9 6 4 12 2 12 -3 0 -14 -17 -14 -25 -1 -3 5 -8 19 -10 31
-4 17 -2 19 10 9 9 -7 15 -8 15 -2 0 5 -7 15 -15 22 -9 7 -13 23 -10 38 2 14
-1 32 -7 39 -7 9 -7 17 2 28 7 9 8 15 2 15 -17 0 -10 84 8 92 12 5 12 7 -4 7
-12 1 -16 6 -13 15 3 8 7 51 8 95 2 100 31 277 65 396 76 273 224 537 412 737
168 178 291 275 457 357 117 58 312 126 405 140 106 16 352 6 443 -18z m1437
8 c88 -13 260 -65 260 -80 0 -6 4 -7 10 -4 9 5 78 -21 90 -34 3 -4 14 -7 25
-9 11 -2 25 -9 30 -17 6 -7 19 -15 30 -18 15 -3 13 -5 -7 -6 -19 -1 -28 4 -28
14 0 8 -6 15 -12 16 -46 3 -62 7 -66 18 -2 6 -8 9 -13 5 -5 -3 1 -14 13 -26
16 -14 18 -18 6 -14 -10 3 -23 -4 -33 -21 -10 -15 -12 -22 -4 -18 9 6 11 3 6
-8 -7 -18 8 -24 18 -7 3 5 12 7 21 3 13 -5 13 -8 -2 -24 -9 -10 -13 -23 -9
-28 4 -7 -3 -11 -18 -11 -14 0 -24 6 -24 15 0 18 17 20 17 3 0 -7 5 -5 11 5 6
10 8 21 5 24 -3 4 -6 1 -6 -6 0 -7 -5 -9 -10 -6 -6 4 -27 1 -46 -5 -33 -11
-36 -15 -30 -42 3 -18 2 -27 -4 -23 -6 3 -10 14 -10 23 0 15 -2 15 -10 2 -7
-11 -5 -19 7 -27 23 -17 10 -27 -17 -13 -15 8 -19 18 -16 33 3 12 3 16 0 9 -3
-6 -10 -10 -15 -7 -5 4 -6 -2 -2 -11 4 -12 3 -15 -5 -10 -7 4 -12 2 -12 -3 0
-6 6 -11 13 -11 8 0 7 -3 -3 -10 -12 -7 -11 -12 5 -30 19 -21 19 -22 2 -35
-14 -10 -15 -14 -5 -18 7 -3 0 -6 -16 -6 -25 -1 -27 1 -15 16 8 10 9 14 2 10
-7 -4 -16 0 -21 9 -7 13 -9 9 -8 -14 1 -34 21 -47 81 -56 17 -2 31 -5 33 -5 2
-1 0 -6 -3 -11 -5 -8 -11 -7 -21 1 -7 6 -21 8 -30 5 -9 -4 -23 -1 -31 5 -22
19 -25 4 -3 -19 12 -12 17 -22 12 -22 -15 0 -49 55 -47 78 1 12 -1 22 -4 22
-12 0 -36 -20 -37 -30 -1 -5 -2 -14 -3 -20 -2 -15 -30 0 -36 20 -3 10 -13 21
-22 25 -14 5 -14 3 2 -15 14 -15 15 -20 4 -21 -11 0 -11 -2 1 -6 8 -4 21 -13
29 -21 13 -12 16 -12 28 4 7 10 11 24 9 31 -3 7 -1 13 4 13 6 0 10 -6 10 -12
0 -7 3 -23 6 -36 5 -18 3 -21 -10 -16 -10 4 -16 1 -16 -7 0 -10 -3 -10 -12 -1
-7 7 -16 12 -22 12 -5 0 -7 -3 -3 -6 3 -4 -1 -13 -9 -21 -16 -17 -13 -39 5
-35 6 1 11 -3 11 -9 0 -5 5 -7 12 -3 8 5 6 11 -5 19 -15 11 -14 13 9 23 35 17
36 16 20 -17 -9 -16 -12 -32 -8 -36 4 -4 -8 -5 -27 -1 -41 7 -38 6 -43 31 -3
20 -53 75 -68 75 -5 0 -12 -4 -15 -10 -4 -6 1 -7 11 -3 12 4 15 3 10 -5 -4 -7
-1 -12 7 -12 8 0 20 -7 27 -15 10 -12 10 -18 0 -30 -11 -13 -10 -14 4 -9 9 3
16 1 16 -5 0 -6 -7 -11 -15 -11 -12 0 -13 -3 -4 -13 6 -6 31 -12 54 -12 27 1
41 -3 39 -10 -5 -12 -44 -15 -44 -3 0 4 -8 8 -17 8 -15 0 -16 -2 -3 -10 13 -8
12 -10 -2 -10 -10 0 -18 5 -18 10 0 6 -11 8 -24 6 -14 -2 -26 0 -28 5 -2 5 -9
0 -16 -11 -7 -12 -8 -20 -2 -20 5 0 10 4 10 10 0 5 7 7 16 3 13 -5 13 -7 2
-14 -11 -7 -10 -11 2 -19 13 -8 13 -10 1 -10 -12 0 -12 -3 -3 -12 9 -9 15 -9
24 0 17 17 27 15 25 -6 -2 -26 -18 -38 -49 -38 -16 0 -34 -8 -41 -18 -12 -17
-14 -17 -20 -2 -4 9 -1 16 6 16 7 0 20 11 29 24 14 19 15 27 5 40 -11 15 -13
14 -26 -6 -13 -21 -13 -22 2 -9 21 17 22 5 2 -15 -8 -9 -15 -11 -15 -5 0 17
-30 13 -36 -4 -4 -8 -11 -12 -16 -9 -6 4 -8 -2 -3 -15 4 -12 2 -21 -4 -21 -6
0 -11 -5 -11 -11 0 -5 4 -7 10 -4 5 3 7 0 4 -9 -9 -23 -35 -28 -60 -11 -30 19
-31 19 -45 -6 -9 -17 -8 -24 2 -31 11 -7 9 -8 -4 -4 -11 4 -31 -2 -47 -14 -32
-22 -45 -26 -34 -8 4 6 3 8 -3 5 -6 -4 -10 -25 -8 -47 1 -22 -1 -40 -6 -40 -5
0 -9 5 -9 11 0 6 -8 2 -17 -10 -16 -19 -44 -31 -80 -33 -6 -1 -8 -8 -5 -17 4
-10 7 -11 10 -3 2 7 8 12 14 12 6 0 4 -8 -4 -17 -30 -35 -51 -89 -49 -126 2
-46 -6 -77 -22 -77 -8 0 -8 3 1 12 7 7 12 19 12 28 0 13 -1 13 -10 0 -8 -12
-10 -12 -10 -1 0 20 -15 3 -15 -17 0 -9 -8 -18 -17 -20 -10 -2 -18 2 -18 8 0
6 4 9 9 5 5 -3 13 -1 16 5 4 7 -6 9 -29 7 -20 -2 -33 0 -30 5 3 5 12 7 20 4 8
-3 14 1 14 8 0 8 -6 16 -12 19 -10 3 -9 8 2 22 14 17 14 18 -8 6 -18 -9 -21
-16 -13 -25 8 -10 8 -16 -2 -25 -17 -14 -27 -5 -27 25 0 26 -12 36 -33 28 -9
-3 -13 -13 -9 -27 7 -31 21 -47 36 -41 15 6 29 -33 15 -42 -5 -3 -9 1 -9 9 0
8 -8 17 -18 19 -12 4 -18 -1 -18 -13 0 -13 3 -15 13 -7 7 6 13 8 13 5 0 -3 3
-12 6 -20 4 -12 0 -14 -15 -10 -21 5 -25 -1 -22 -42 1 -14 -3 -11 -12 10 -8
17 -10 32 -5 33 4 2 5 8 2 14 -4 7 -9 6 -14 -2 -9 -15 19 -92 31 -84 5 3 9 -2
9 -11 0 -12 6 -15 19 -10 11 3 22 1 26 -5 3 -5 1 -10 -5 -10 -7 0 -7 -7 1 -22
10 -19 8 -19 -14 5 -14 15 -35 27 -47 27 -19 0 -24 10 -21 38 1 6 -5 12 -13
12 -8 0 -18 4 -21 10 -4 6 1 7 12 3 17 -6 17 -5 2 13 -9 10 -15 26 -13 34 3 8
-1 5 -8 -8 -9 -18 -9 -28 0 -42 9 -14 8 -20 -1 -24 -7 -3 -3 -4 8 -1 30 7 33
-41 4 -48 -13 -3 -18 -10 -14 -17 5 -7 0 -7 -13 1 -12 7 -19 16 -17 20 3 3 -2
15 -11 25 -14 18 -15 18 -4 -3 6 -13 8 -23 4 -23 -4 0 1 -9 10 -19 13 -15 14
-20 4 -24 -8 -3 -6 -6 5 -6 10 -1 17 -6 15 -12 -8 -23 -24 -12 -36 26 -7 22
-20 47 -29 55 -15 13 -16 13 -5 0 15 -21 11 -60 -5 -60 -7 0 -13 5 -13 10 0 6
5 10 10 10 6 0 10 5 10 11 0 5 -4 8 -9 4 -10 -6 -19 169 -13 237 4 34 7 37 63
57 63 23 144 82 177 128 25 36 62 117 62 138 0 9 3 14 8 11 4 -2 4 36 0 85
-14 184 -118 312 -290 359 -27 7 -48 16 -48 20 0 15 100 101 170 145 202 131
446 175 740 134z m395 -159 c3 -5 -3 -10 -15 -10 -17 0 -19 -2 -8 -14 7 -8 17
-11 22 -8 5 3 6 -1 1 -8 -14 -23 17 -29 37 -7 18 22 18 21 1 -10 -12 -21 -20
-28 -25 -20 -4 7 -8 9 -9 5 -2 -11 -6 -26 -9 -35 -1 -5 -2 -12 -1 -16 1 -5 -8
-6 -19 -2 -14 4 -20 2 -20 -9 0 -10 6 -13 17 -9 10 4 14 2 9 -5 -9 -15 -43
-11 -43 6 0 7 11 21 24 29 12 8 20 20 17 25 -4 6 -2 13 5 17 18 12 -17 53 -40
46 -26 -9 -24 8 4 21 29 15 44 16 52 4z m90 -40 c3 -6 -1 -7 -9 -4 -18 7 -21
14 -7 14 6 0 13 -4 16 -10z m29 -25 c-4 -8 -10 -15 -16 -15 -5 0 -7 -4 -3 -9
3 -5 0 -13 -6 -17 -7 -4 -9 -3 -5 4 3 6 2 13 -4 17 -16 10 -12 28 5 21 8 -3
15 -1 15 4 0 6 4 10 10 10 5 0 7 -7 4 -15z m46 -30 c0 -2 -9 -3 -19 -2 -11 0
-18 5 -15 9 4 6 34 0 34 -7z m-257 -33 c21 -10 21 -11 -5 -11 -14 -1 -29 5
-31 12 -4 7 -6 6 -6 -5 -1 -9 5 -18 11 -20 7 -3 3 -7 -8 -10 -19 -5 -21 -2
-19 26 2 17 8 30 14 29 6 -2 12 3 12 10 1 6 3 5 6 -4 2 -9 14 -21 26 -27z
m234 12 c-3 -3 -12 -4 -19 -1 -8 3 -5 6 6 6 11 1 17 -2 13 -5z m-122 -14 c3
-5 1 -10 -4 -10 -6 0 -11 5 -11 10 0 6 2 10 4 10 3 0 8 -4 11 -10z m220 -10
c3 -6 -1 -7 -9 -4 -18 7 -21 14 -7 14 6 0 13 -4 16 -10z m-321 -18 c3 -5 -1
-9 -9 -9 -8 0 -12 4 -9 9 3 4 7 8 9 8 2 0 6 -4 9 -8z m158 -7 c3 0 9 -3 13 -7
4 -3 0 -5 -9 -4 -9 1 -22 8 -29 16 -10 10 -9 11 3 4 8 -5 18 -9 22 -9z m-275
-13 c-9 -2 -15 -8 -12 -13 4 -5 22 -2 42 6 35 15 38 14 57 -5 14 -14 16 -20 7
-20 -8 0 -19 7 -25 15 -7 10 -16 12 -25 6 -12 -8 -12 -12 -2 -25 7 -9 17 -13
22 -10 23 14 5 -17 -20 -35 -31 -23 -61 -28 -61 -10 0 5 5 7 10 4 6 -4 22 1
36 10 24 16 25 18 9 35 -9 10 -22 17 -28 14 -19 -6 -38 11 -32 29 4 10 13 13
23 9 16 -6 15 -7 -1 -10z m214 1 c13 -17 13 -17 -6 -3 -11 8 -22 16 -24 17 -2
2 0 3 6 3 6 0 17 -8 24 -17z m194 7 c3 -6 -1 -7 -9 -4 -18 7 -21 14 -7 14 6 0
13 -4 16 -10z m-245 -53 c0 -7 -4 -6 -10 3 -7 11 -10 11 -10 2 0 -7 -5 -10
-11 -6 -8 4 -7 9 2 15 15 9 29 3 29 -14z m45 3 c3 -5 1 -10 -4 -10 -6 0 -11 5
-11 10 0 6 2 10 4 10 3 0 8 -4 11 -10z m-100 -9 c3 -5 2 -12 -3 -15 -5 -3 -9
1 -9 9 0 17 3 19 12 6z m-85 -5 c0 -2 -7 -6 -15 -10 -8 -3 -15 -1 -15 4 0 6 7
10 15 10 8 0 15 -2 15 -4z m100 -36 c0 -5 -2 -10 -4 -10 -3 0 -8 5 -11 10 -3
6 -1 10 4 10 6 0 11 -4 11 -10z m95 0 c3 -6 -1 -7 -9 -4 -18 7 -21 14 -7 14 6
0 13 -4 16 -10z m-130 -20 c3 -5 -4 -6 -15 -3 -11 3 -22 9 -25 13 -3 5 4 6 15
3 11 -3 22 -9 25 -13z m-1125 -38 c85 -51 122 -168 81 -257 -62 -135 -214
-174 -324 -84 -52 43 -77 96 -77 164 0 168 176 265 320 177z m1041 -6 c7 4 10
2 7 -7 -3 -8 -10 -14 -15 -14 -6 0 -15 -3 -19 -7 -4 -5 0 -8 8 -8 9 0 18 -6
21 -13 3 -8 -1 -14 -9 -14 -7 0 -10 5 -7 10 4 6 -1 8 -11 4 -10 -4 -15 -3 -11
3 3 6 -2 10 -12 10 -15 1 -14 3 5 13 18 11 20 15 10 27 -11 12 -10 12 4 1 9
-7 22 -9 29 -5z m-74 -35 c10 -15 9 -22 -3 -32 -8 -6 -17 -9 -21 -6 -3 4 -12
2 -20 -4 -9 -9 -13 -8 -13 0 0 6 6 12 13 12 6 1 17 2 22 4 6 1 14 3 19 3 5 1
-1 13 -15 28 -13 14 -17 23 -9 19 9 -3 21 -14 27 -24z m106 -1 c-3 -12 -8 -19
-11 -16 -5 6 5 36 12 36 2 0 2 -9 -1 -20z m42 10 c3 -5 1 -10 -4 -10 -6 0 -11
5 -11 10 0 6 2 10 4 10 3 0 8 -4 11 -10z m-184 -23 c-13 -13 -26 -3 -16 12 3
6 11 8 17 5 6 -4 6 -10 -1 -17z m28 -64 c-32 -14 -33 -15 -15 -28 20 -15 16
-45 -6 -45 -10 0 -10 2 -1 8 8 5 9 12 2 22 -8 13 -11 13 -23 -2 -7 -10 -19
-18 -25 -18 -6 0 -2 10 9 22 12 13 16 24 10 26 -5 2 -10 8 -10 14 0 7 5 7 13
-1 10 -8 18 -6 33 8 10 10 25 16 33 13 8 -3 0 -10 -20 -19z m86 -2 c3 -5 2
-12 -3 -15 -5 -3 -9 1 -9 9 0 17 3 19 12 6z m-212 -18 c3 -5 -6 -9 -19 -9 -13
-1 -24 2 -24 7 0 11 37 12 43 2z m57 -8 c0 -8 -4 -15 -9 -15 -13 0 -22 16 -14
24 11 11 23 6 23 -9z m-20 -32 c0 -3 -7 -3 -15 1 -8 3 -15 0 -15 -6 0 -6 -3
-9 -6 -5 -11 10 6 26 21 20 8 -3 15 -7 15 -10z m135 -12 c-6 -5 -25 10 -25 20
0 5 6 4 14 -3 8 -7 12 -15 11 -17z m-137 -15 c-10 -7 -15 -16 -11 -19 3 -4 -1
-7 -10 -7 -9 0 -19 5 -23 12 -4 6 -3 8 3 5 6 -4 16 0 23 8 7 8 18 15 24 15 6
0 3 -7 -6 -14z m192 -6 c0 -5 -2 -10 -4 -10 -3 0 -8 5 -11 10 -3 6 -1 10 4 10
6 0 11 -4 11 -10z m-269 -60 c7 0 10 -3 7 -6 -11 -10 -46 19 -40 34 4 12 7 10
13 -6 5 -12 14 -22 20 -22z m27 20 c8 0 13 -3 9 -6 -10 -10 -48 7 -40 19 5 8
8 8 11 -1 2 -7 11 -12 20 -12z m67 10 c3 -5 -1 -10 -10 -10 -9 0 -13 5 -10 10
3 6 8 10 10 10 2 0 7 -4 10 -10z m-199 -25 c-8 -8 -18 -15 -22 -15 -3 0 -1 7
6 15 7 8 17 15 22 15 5 0 3 -7 -6 -15z m-100 -47 l4 -33 -14 30 c-7 17 -11 34
-9 38 8 13 14 1 19 -35z m255 33 c-11 -7 -10 -11 5 -20 11 -6 14 -11 8 -11 -6
0 -17 6 -23 13 -11 14 -5 27 13 27 6 0 5 -4 -3 -9z m-161 -15 c0 -3 -4 -8 -10
-11 -5 -3 -10 -1 -10 4 0 6 5 11 10 11 6 0 10 -2 10 -4z m30 -16 c0 -5 -2 -10
-4 -10 -3 0 -8 5 -11 10 -3 6 -1 10 4 10 6 0 11 -4 11 -10z m101 -13 c-10 -9
-11 -8 -5 6 3 10 9 15 12 12 3 -3 0 -11 -7 -18z m-156 3 c3 -6 -1 -7 -9 -4
-18 7 -21 14 -7 14 6 0 13 -4 16 -10z m127 3 c-6 -2 -9 -10 -6 -15 4 -7 2 -8
-5 -4 -13 9 -5 26 12 25 9 0 8 -2 -1 -6z m-252 -28 c-14 -17 0 -21 17 -4 6 6
13 7 16 1 4 -5 -9 -14 -27 -19 -28 -9 -33 -8 -32 4 1 8 9 19 17 24 20 13 23
11 9 -6z m105 -4 c-3 -6 -11 -11 -16 -11 -5 0 -4 6 3 14 14 16 24 13 13 -3z
m49 -7 c3 -8 2 -12 -4 -9 -6 3 -10 10 -10 16 0 14 7 11 14 -7z m-191 -23 c-3
-13 1 -21 14 -24 13 -3 10 -5 -8 -6 -16 -1 -29 5 -33 14 -3 8 -1 15 4 15 6 0
9 3 9 8 -3 16 1 23 10 18 5 -3 7 -15 4 -25z m131 -3 c-3 -4 -11 -5 -19 -1 -21
7 -19 12 4 10 11 0 18 -5 15 -9z m56 -4 c0 -2 -9 -4 -21 -4 -11 0 -18 4 -14
10 5 8 35 3 35 -6z m-120 -10 c0 -12 -4 -12 -20 -4 -11 6 -20 12 -20 13 0 2 9
3 20 4 12 1 20 -4 20 -13z m175 -12 c-3 -3 -11 0 -18 7 -9 10 -8 11 6 5 10 -3
15 -9 12 -12z m-145 -2 c0 -5 -5 -10 -11 -10 -5 0 -7 5 -4 10 3 6 8 10 11 10
2 0 4 -4 4 -10z m90 -40 c0 -5 -7 -10 -16 -10 -9 0 -12 -5 -8 -12 5 -8 1 -7
-10 2 -17 13 -17 14 1 21 26 11 33 10 33 -1z m40 -134 c0 -3 -4 -8 -10 -11 -5
-3 -10 -1 -10 4 0 6 5 11 10 11 6 0 10 -2 10 -4z m-560 -37 c0 -17 -4 -28 -10
-24 -11 7 -9 55 2 55 4 0 8 -14 8 -31z m57 -59 c-4 -17 -2 -20 16 -16 12 3 17
3 11 0 -14 -6 -6 -44 8 -44 5 0 6 6 2 13 -4 6 -3 8 1 4 12 -10 15 -38 4 -31
-5 3 -9 -2 -9 -10 0 -9 -9 -16 -21 -16 -11 0 -17 -5 -14 -10 4 -6 11 -7 17 -4
7 4 8 2 4 -4 -9 -15 -31 -5 -44 21 -18 35 -19 83 -2 72 6 -3 10 2 10 13 0 18
8 32 18 32 2 0 2 -9 -1 -20z m-55 -74 c3 -15 1 -23 -6 -20 -6 2 -12 15 -12 29
-2 31 12 24 18 -9z m217 -22 c4 3 8 -1 8 -9 0 -10 -4 -12 -12 -5 -7 5 -15 7
-19 3 -4 -4 -4 1 0 12 5 11 9 14 12 7 2 -7 7 -10 11 -8z m-79 -23 c3 -2 -3 -1
-12 2 -9 3 -19 1 -21 -6 -3 -7 -4 -2 -4 10 1 21 7 20 37 -6z m35 9 c3 -5 1
-10 -4 -10 -6 0 -11 5 -11 10 0 6 2 10 4 10 3 0 8 -4 11 -10z m-241 -71 c-3
-5 -11 -9 -17 -8 -8 0 -8 2 1 6 10 4 10 8 0 21 -12 15 -11 16 4 3 10 -7 15
-17 12 -22z m30 5 c3 -8 2 -12 -4 -9 -6 3 -10 10 -10 16 0 14 7 11 14 -7z m36
6 c0 -5 -2 -10 -4 -10 -3 0 -8 5 -11 10 -3 6 -1 10 4 10 6 0 11 -4 11 -10z
m93 -13 c3 -8 -1 -14 -8 -14 -7 0 -11 6 -8 14 3 7 6 13 8 13 2 0 5 -6 8 -13z
m-252 -54 c-9 -15 -10 -12 -10 17 0 29 1 32 10 18 7 -12 7 -24 0 -35z m96 31
c-3 -3 -12 -4 -19 -1 -8 3 -5 6 6 6 11 1 17 -2 13 -5z m-50 -38 c0 -7 -9 -18
-19 -25 -21 -13 -25 2 -5 24 15 18 24 19 24 1z m86 -14 c-5 -19 -48 -28 -58
-12 -3 6 -1 10 5 10 6 0 8 5 4 12 -4 7 -3 8 5 4 6 -4 9 -12 6 -17 -9 -14 11
-11 24 4 6 8 7 18 3 22 -4 5 -2 5 5 2 6 -4 9 -15 6 -25z m-149 -8 c3 -8 2 -12
-4 -9 -6 3 -10 10 -10 16 0 14 7 11 14 -7z m73 -19 c0 -8 -6 -16 -13 -19 -7
-3 -10 2 -7 15 6 22 20 26 20 4z m-83 -11 c3 -8 2 -12 -4 -9 -6 3 -10 10 -10
16 0 14 7 11 14 -7z m103 -26 c-3 -7 -5 -2 -5 12 0 14 2 19 5 13 2 -7 2 -19 0
-25z m-94 -10 c-4 -7 -11 -33 -14 -58 l-7 -45 1 50 c0 28 6 53 11 57 16 11 18
10 9 -4z m47 -2 c0 -3 -4 -8 -10 -11 -5 -3 -10 -1 -10 4 0 6 5 11 10 11 6 0
10 -2 10 -4z m1071 -45 c34 -33 39 -45 39 -83 0 -73 -58 -128 -135 -128 -74 0
-125 51 -125 125 0 78 49 124 134 125 43 0 53 -4 87 -39z m-1061 -13 c0 -11
-12 -10 -30 2 -12 7 -10 9 8 7 12 0 22 -5 22 -9z m-438 -237 c-11 -20 -19 -26
-24 -18 -6 9 24 45 39 47 1 0 -6 -13 -15 -29z m-32 -41 c0 -5 -7 -7 -15 -4 -8
4 -15 8 -15 10 0 2 7 4 15 4 8 0 15 -4 15 -10z m-11 -52 c1 -5 -4 -8 -10 -8
-5 0 -7 5 -4 10 3 6 -1 10 -10 10 -12 0 -15 -6 -9 -22 8 -27 2 -23 -16 11 -7
13 -7 21 -2 17 6 -4 17 0 24 8 11 12 14 12 20 -3 4 -9 7 -19 7 -23z m2104 -22
c42 -17 83 -66 98 -116 16 -53 -9 -120 -59 -158 -46 -35 -135 -39 -178 -6
-160 119 -42 356 139 280z m-2293 -16 c0 -5 -2 -10 -4 -10 -3 0 -8 5 -11 10
-3 6 -1 10 4 10 6 0 11 -4 11 -10z m70 -10 c-18 -12 -30 -13 -30 -2 0 4 10 9
22 9 18 2 20 0 8 -7z m107 4 c-3 -3 -12 -4 -19 -1 -8 3 -5 6 6 6 11 1 17 -2
13 -5z m-1772 -24 c-10 -11 -20 -18 -23 -15 -7 6 18 35 31 35 5 0 2 -9 -8 -20z
m1565 5 c0 -8 6 -15 13 -16 9 0 9 -2 0 -6 -7 -2 -20 2 -28 10 -19 20 -19 27 0
27 8 0 15 -7 15 -15z m140 5 c0 -5 -2 -10 -4 -10 -3 0 -8 5 -11 10 -3 6 -1 10
4 10 6 0 11 -4 11 -10z m-34 -37 c-4 -9 -1 -20 6 -25 10 -7 9 -9 -2 -5 -16 4
-23 47 -8 47 6 0 7 -8 4 -17z m-151 -23 c-3 -5 -12 -10 -18 -10 -7 0 -6 4 3
10 19 12 23 12 15 0z m70 -19 c3 -5 2 -12 -3 -15 -5 -3 -9 1 -9 9 0 17 3 19
12 6z m-181 -51 c0 -17 -7 -36 -14 -43 -10 -10 -12 -8 -6 6 3 10 6 30 6 43 0
13 3 24 8 24 4 0 7 -14 6 -30z m161 20 c3 -5 -1 -10 -10 -10 -9 0 -13 5 -10
10 3 6 8 10 10 10 2 0 7 -4 10 -10z m22 -19 c0 -11 -5 -18 -9 -15 -4 3 -5 11
-1 19 7 21 12 19 10 -4z m-58 -35 c0 -7 -2 -6 -6 2 -2 6 -8 10 -12 8 -4 -3 -8
1 -8 9 0 11 4 12 14 4 7 -6 13 -17 12 -23z m-1539 4 c0 -5 -2 -10 -4 -10 -3 0
-8 5 -11 10 -3 6 -1 10 4 10 6 0 11 -4 11 -10z m270 -34 c0 -8 -5 -18 -12 -22
-7 -4 -8 -3 -4 4 4 7 2 12 -4 12 -7 0 -10 -7 -6 -15 8 -22 -4 -45 -23 -45 -9
0 -12 3 -6 8 19 14 15 39 -7 50 -22 11 -22 11 3 6 15 -3 30 -1 33 5 10 16 26
13 26 -3z m420 4 c0 -5 -5 -10 -11 -10 -5 0 -7 5 -4 10 3 6 8 10 11 10 2 0 4
-4 4 -10z m770 0 c0 -5 -5 -10 -11 -10 -5 0 -7 5 -4 10 3 6 8 10 11 10 2 0 4
-4 4 -10z m-1027 -40 c3 -11 2 -20 -3 -20 -4 0 -10 9 -13 20 -3 11 -2 20 3 20
4 0 10 -9 13 -20z m482 -7 c15 -23 15 -25 2 -20 -10 4 -20 -1 -26 -11 -6 -9
-11 -12 -11 -6 0 5 5 15 12 22 9 9 9 12 0 12 -6 0 -9 7 -6 15 8 20 9 19 29
-12z m-48 3 c-5 -15 -24 -18 -24 -3 0 8 6 14 14 14 7 0 12 -5 10 -11z m-493
-2 c19 -7 21 -30 4 -40 -6 -4 -8 -3 -5 2 3 6 1 16 -4 24 -8 13 -10 13 -19 0
-5 -8 -10 -10 -10 -4 0 10 9 24 16 24 1 0 9 -3 18 -6z m424 -30 c-4 -3 -12 5
-18 18 -12 22 -12 22 6 6 10 -10 15 -20 12 -24z m-679 -1 c2 -2 -5 -3 -16 -3
-11 0 -20 7 -20 15 0 12 3 12 16 3 9 -7 18 -14 20 -15z m561 17 c0 -5 -7 -7
-15 -4 -8 4 -15 8 -15 10 0 2 7 4 15 4 8 0 15 -4 15 -10z m316 -22 l29 -33
-32 29 c-31 28 -38 36 -30 36 2 0 16 -15 33 -32z m-1099 -10 c-3 -8 -6 -5 -6
6 -1 11 2 17 5 13 3 -3 4 -12 1 -19z m553 7 c6 -8 9 -18 6 -23 -9 -15 -46 -22
-43 -8 1 6 -4 10 -11 8 -8 -1 -12 3 -9 10 2 7 10 12 16 11 6 -2 11 2 11 7 0
15 16 12 30 -5z m260 5 c0 -5 -5 -10 -11 -10 -5 0 -7 5 -4 10 3 6 8 10 11 10
2 0 4 -4 4 -10z m40 0 c8 -5 11 -10 5 -10 -5 0 -17 5 -25 10 -8 5 -10 10 -5
10 6 0 17 -5 25 -10z m109 -13 c0 -8 -2 -8 -6 1 -3 9 -10 7 -24 -9 -10 -12
-19 -18 -19 -14 0 5 7 17 16 26 17 19 35 17 33 -4z m91 13 c0 -5 -5 -10 -11
-10 -5 0 -7 5 -4 10 3 6 8 10 11 10 2 0 4 -4 4 -10z m-875 -9 c3 -5 1 -12 -5
-16 -5 -3 -10 1 -10 9 0 18 6 21 15 7z m155 -1 c-12 -8 -12 -10 -1 -10 8 0 12
-3 8 -6 -9 -9 -28 6 -22 17 4 5 12 9 18 9 7 0 6 -4 -3 -10z m-190 -22 c0 -5
-9 -4 -20 2 -11 6 -20 12 -20 14 0 2 9 2 20 -1 11 -3 20 -9 20 -15z m131 -8
c5 0 9 5 9 10 0 6 5 10 10 10 21 0 9 -20 -15 -26 -31 -8 -40 -1 -30 23 8 17 8
17 12 1 3 -10 9 -18 14 -18z m116 8 c-3 -8 -6 -5 -6 6 -1 11 2 17 5 13 3 -3 4
-12 1 -19z m43 7 c0 -8 -7 -15 -15 -15 -13 0 -14 3 -3 15 16 18 18 18 18 0z
m-220 1 c0 -2 -7 -9 -15 -16 -13 -11 -14 -10 -9 4 5 14 24 23 24 12z m264 -5
c3 -5 -2 -11 -12 -13 -11 -3 -19 0 -19 8 0 16 23 19 31 5z m416 -7 c0 -8 -19
-13 -24 -6 -3 5 1 9 9 9 8 0 15 -2 15 -3z m-853 -21 c0 -10 -5 -26 -12 -36
-11 -16 -13 -16 -19 -2 -3 9 -2 13 3 10 19 -11 24 18 6 32 -18 12 -18 13 1 13
13 0 21 -7 21 -17z m383 -35 c0 -5 -6 -3 -13 4 -8 7 -14 19 -14 26 0 11 4 10
14 -4 7 -10 13 -22 13 -26z m181 4 l27 -37 -27 -19 c-14 -11 -20 -13 -14 -6
10 11 9 18 -5 34 -17 21 -17 21 6 2 23 -20 31 -7 10 16 -27 28 -40 48 -32 48
5 0 21 -17 35 -38z m339 29 c0 -6 -4 -12 -8 -15 -5 -3 -9 1 -9 9 0 8 4 15 9
15 4 0 8 -4 8 -9z m-710 -16 c0 -2 -6 -5 -13 -8 -8 -3 -14 1 -14 8 0 7 6 11
14 8 7 -3 13 -6 13 -8z m70 0 c0 -2 -7 -5 -15 -9 -9 -3 -15 0 -15 9 0 9 6 12
15 9 8 -4 15 -7 15 -9z m160 -1 c0 -8 -5 -12 -10 -9 -6 4 -8 11 -5 16 9 14 15
11 15 -7z m-296 -16 c-3 -4 -11 -5 -19 -1 -21 7 -19 12 4 10 11 0 18 -5 15 -9z
m176 -3 c0 -1 -6 -7 -13 -13 -10 -8 -13 -6 -13 7 0 11 6 17 13 14 7 -3 13 -6
13 -8z m540 9 c0 -8 -19 -13 -24 -6 -3 5 1 9 9 9 8 0 15 -2 15 -3z m-680 -19
c7 -9 8 -15 2 -15 -5 0 -12 7 -16 15 -3 8 -4 15 -2 15 2 0 9 -7 16 -15z m-80
1 c0 -2 -7 -7 -16 -10 -8 -3 -12 -2 -9 4 6 10 25 14 25 6z m830 -6 c-19 -13
-30 -13 -30 0 0 6 10 10 23 10 18 0 19 -2 7 -10z m125 0 c3 -6 -1 -7 -9 -4
-18 7 -21 14 -7 14 6 0 13 -4 16 -10z m-925 -20 c0 -5 -2 -10 -4 -10 -3 0 -8
5 -11 10 -3 6 -1 10 4 10 6 0 11 -4 11 -10z m230 -33 c11 -5 9 -6 -4 -4 -11 1
-21 9 -23 17 -3 10 -2 11 4 4 4 -6 15 -14 23 -17z m137 8 c0 -8 -4 -12 -9 -9
-5 3 -6 10 -3 15 9 13 12 11 12 -6z m487 -13 c3 -5 -1 -9 -9 -9 -8 0 -12 4 -9
9 3 4 7 8 9 8 2 0 6 -4 9 -8z m1876 -597 c39 -20 60 -53 60 -92 0 -72 -43
-113 -120 -113 -65 0 -108 51 -101 120 4 44 15 62 44 80 38 24 78 25 117 5z"/>
<path d="M4966 4937 c3 -10 9 -15 12 -12 3 3 0 11 -7 18 -10 9 -11 8 -5 -6z"/>
<path d="M4930 4931 c0 -6 4 -13 10 -16 6 -3 7 1 4 9 -7 18 -14 21 -14 7z"/>
<path d="M4816 4917 c3 -10 9 -15 12 -12 3 3 0 11 -7 18 -10 9 -11 8 -5 -6z"/>
<path d="M4956 4891 c-3 -5 1 -14 9 -21 10 -9 15 -9 15 -1 0 6 -5 11 -11 11
-5 0 -7 5 -4 10 3 6 4 10 1 10 -3 0 -7 -4 -10 -9z"/>
<path d="M4835 4860 c3 -5 8 -10 11 -10 2 0 4 5 4 10 0 6 -5 10 -11 10 -5 0
-7 -4 -4 -10z"/>
<path d="M4870 4840 c0 -13 18 -22 24 -11 3 5 -1 11 -9 15 -8 3 -15 1 -15 -4z"/>
<path d="M4673 4802 c0 -12 5 -22 9 -22 11 0 10 12 -2 30 -7 12 -9 10 -7 -8z"/>
<path d="M4862 4807 c10 -8 16 -16 13 -19 -3 -2 2 -5 10 -5 19 0 10 14 -18 27
-20 10 -20 10 -5 -3z"/>
<path d="M4805 4790 c-3 -5 -2 -10 4 -10 5 0 13 5 16 10 3 6 2 10 -4 10 -5 0
-13 -4 -16 -10z"/>
<path d="M4849 4772 c7 -13 10 -30 7 -37 -3 -8 0 -17 6 -21 6 -4 8 -3 4 4 -3
6 1 15 9 19 13 8 11 13 -11 34 l-27 24 12 -23z"/>
<path d="M4940 4781 c0 -6 4 -13 10 -16 6 -3 7 1 4 9 -7 18 -14 21 -14 7z"/>
<path d="M4746 4757 c3 -10 9 -15 12 -12 3 3 0 11 -7 18 -10 9 -11 8 -5 -6z"/>
<path d="M4918 4753 c6 -2 12 -9 12 -14 0 -6 -4 -8 -9 -5 -5 3 -15 -2 -22 -12
-11 -14 -11 -15 0 -5 7 6 20 9 27 6 9 -3 14 2 14 16 0 14 -6 21 -17 20 -11 0
-13 -3 -5 -6z"/>
<path d="M4964 4748 c-5 -7 -14 -22 -19 -33 -9 -16 -19 -20 -57 -18 -33 2 -48
-2 -52 -12 -3 -9 -12 -12 -22 -8 -12 4 -15 3 -10 -5 4 -7 14 -12 23 -12 12 0
13 -3 4 -14 -8 -10 -8 -16 3 -25 10 -8 16 -9 21 -1 3 5 1 10 -4 10 -6 0 -11 4
-11 10 0 5 8 7 18 4 14 -5 14 -3 -2 10 -17 13 -18 18 -6 29 7 6 10 7 7 1 -11
-19 66 -11 81 9 7 9 17 15 22 12 5 -3 12 0 16 6 4 8 3 9 -4 5 -7 -4 -12 -1
-12 8 0 8 6 16 13 19 6 2 9 7 6 11 -4 4 -11 1 -15 -6z"/>
<path d="M4817 4729 c7 -7 15 -10 18 -7 3 3 -2 9 -12 12 -14 6 -15 5 -6 -5z"/>
<path d="M4620 4726 c0 -2 8 -10 18 -17 15 -13 16 -12 3 4 -13 16 -21 21 -21
13z"/>
<path d="M4730 4713 c0 -10 4 -14 8 -8 4 6 11 13 16 18 5 4 2 7 -7 7 -10 0
-17 -8 -17 -17z"/>
<path d="M4780 4719 c0 -5 5 -7 10 -4 6 3 10 8 10 11 0 2 -4 4 -10 4 -5 0 -10
-5 -10 -11z"/>
<path d="M4800 4700 c0 -6 7 -10 15 -10 8 0 15 2 15 4 0 2 -7 6 -15 10 -8 3
-15 1 -15 -4z"/>
<path d="M4656 4677 c-22 -18 -27 -28 -22 -45 4 -12 12 -22 19 -22 8 0 8 3 0
11 -15 15 -5 47 18 54 10 4 19 11 19 16 0 12 -1 12 -34 -14z"/>
<path d="M4707 4650 c-23 -23 0 -34 28 -14 13 10 22 11 32 3 9 -8 13 -8 13 0
0 10 -14 15 -34 12 -5 -1 -12 2 -15 7 -3 5 -14 1 -24 -8z"/>
<path d="M4460 4635 c0 -8 29 -12 39 -5 9 5 4 8 -13 8 -14 0 -26 -2 -26 -3z"/>
<path d="M2905 4621 c-3 -5 -2 -12 3 -15 5 -3 9 1 9 9 0 17 -3 19 -12 6z"/>
<path d="M4574 4618 c-4 -7 -2 -8 4 -4 7 4 12 2 12 -3 0 -6 7 -11 15 -11 8 0
15 -4 15 -10 0 -5 5 -10 10 -10 20 0 9 19 -20 33 -20 11 -32 12 -36 5z"/>
<path d="M4677 4614 c6 -15 23 -19 23 -5 0 5 -7 11 -14 14 -10 4 -13 1 -9 -9z"/>
<path d="M4281 4611 c-8 -5 -9 -11 -3 -15 5 -3 12 1 16 9 6 17 6 18 -13 6z"/>
<path d="M4551 4594 c0 -11 3 -14 6 -6 3 7 2 16 -1 19 -3 4 -6 -2 -5 -13z"/>
<path d="M2850 4590 c0 -5 9 -8 20 -7 21 1 18 10 -5 13 -8 1 -15 -2 -15 -6z"/>
<path d="M4450 4574 c0 -8 5 -12 10 -9 6 4 8 11 5 16 -9 14 -15 11 -15 -7z"/>
<path d="M4595 4580 c-4 -6 -11 -8 -16 -5 -5 4 -4 -6 2 -22 11 -30 4 -77 -11
-68 -5 3 -7 12 -4 19 3 7 -2 16 -11 20 -9 3 -14 9 -11 14 2 4 -4 13 -15 20
-27 17 -24 0 5 -30 l24 -24 -23 -2 c-15 -1 -25 5 -28 16 -4 15 -5 15 -6 1 -1
-20 -40 -32 -78 -24 -23 4 -21 2 7 -9 43 -18 53 -19 45 -6 -4 6 8 10 29 10 22
0 36 -5 36 -12 0 -10 3 -9 9 1 5 8 11 9 15 3 4 -6 -2 -15 -11 -21 -10 -6 -13
-11 -8 -11 6 0 21 7 33 16 13 9 29 13 37 10 8 -3 15 -2 15 3 0 5 10 11 21 14
15 4 20 11 15 22 -3 9 -6 24 -6 33 -1 15 -3 14 -16 -3 -15 -20 -16 -20 -12 0
2 12 -3 20 -12 20 -8 1 -14 6 -12 13 3 15 -5 16 -13 2z m20 -30 c3 -5 -1 -10
-10 -10 -9 0 -13 5 -10 10 3 6 8 10 10 10 2 0 7 -4 10 -10z m9 -36 c9 -3 14
-10 11 -15 -7 -10 -35 0 -35 12 0 11 3 11 24 3z"/>
<path d="M4295 4570 c3 -5 8 -10 11 -10 2 0 4 5 4 10 0 6 -5 10 -11 10 -5 0
-7 -4 -4 -10z"/>
<path d="M4353 4532 c-1 -28 1 -32 9 -18 5 10 7 20 4 23 -3 4 -1 11 4 18 7 8
6 12 -3 12 -8 0 -13 -14 -14 -35z"/>
<path d="M2900 4546 c0 -8 4 -17 9 -20 5 -4 7 3 4 14 -6 23 -13 26 -13 6z"/>
<path d="M4260 4550 c-8 -5 -10 -10 -5 -10 6 0 17 5 25 10 8 5 11 10 5 10 -5
0 -17 -5 -25 -10z"/>
<path d="M4311 4551 c-8 -5 -9 -11 -3 -15 5 -3 15 1 22 9 14 16 3 20 -19 6z"/>
<path d="M2870 4535 c-7 -9 -11 -17 -9 -20 3 -2 10 5 17 15 14 24 10 26 -8 5z"/>
<path d="M4440 4540 c0 -5 -3 -9 -7 -9 -20 3 -33 -2 -33 -13 0 -9 3 -9 12 0 9
9 16 8 30 -5 11 -10 18 -11 18 -5 0 7 -4 12 -10 12 -5 0 -7 7 -4 15 4 8 3 15
0 15 -3 0 -6 -4 -6 -10z"/>
<path d="M4477 4543 c-10 -10 -8 -23 4 -23 5 0 8 4 5 9 -4 5 0 12 6 14 7 3 8
6 2 6 -6 1 -14 -2 -17 -6z"/>
<path d="M2997 4519 c7 -9 10 -19 6 -22 -3 -4 -1 -13 5 -20 7 -8 10 -17 7 -20
-3 -4 -2 -5 2 -2 3 3 12 -3 19 -13 8 -9 14 -12 14 -5 0 6 -5 15 -10 18 -6 4
-8 11 -5 16 4 5 -1 9 -10 9 -11 0 -15 5 -12 14 3 8 -2 20 -11 28 -15 11 -15
11 -5 -3z"/>
<path d="M4377 4523 c-4 -3 -7 -11 -7 -17 0 -6 5 -5 12 2 6 6 9 14 7 17 -3 3
-9 2 -12 -2z"/>
<path d="M4680 4521 c0 -6 4 -13 10 -16 6 -3 7 1 4 9 -7 18 -14 21 -14 7z"/>
<path d="M2940 4505 c0 -9 -4 -14 -9 -10 -5 3 -16 -1 -24 -9 -8 -8 -18 -12
-22 -8 -5 4 -5 1 -1 -6 4 -7 12 -10 17 -6 5 3 16 1 24 -6 15 -12 31 3 20 20
-6 9 8 14 28 11 14 -2 7 8 -13 19 -16 9 -20 8 -20 -5z m0 -35 c0 -5 -2 -10 -4
-10 -3 0 -8 5 -11 10 -3 6 -1 10 4 10 6 0 11 -4 11 -10z"/>
<path d="M3038 4493 c7 -3 16 -2 19 1 4 3 -2 6 -13 5 -11 0 -14 -3 -6 -6z"/>
<path d="M3131 4474 c0 -11 3 -14 6 -6 3 7 2 16 -1 19 -3 4 -6 -2 -5 -13z"/>
<path d="M3187 4465 c-4 -8 -3 -16 1 -19 4 -3 9 4 9 15 2 23 -3 25 -10 4z"/>
<path d="M3310 4476 c0 -2 8 -10 18 -17 15 -13 16 -12 3 4 -13 16 -21 21 -21
13z"/>
<path d="M4397 4473 c-4 -3 -2 -12 4 -19 14 -17 3 -35 -19 -28 -14 5 -14 4 -3
-4 10 -7 21 -7 32 -1 23 12 26 12 33 -7 4 -10 2 -13 -6 -8 -8 5 -9 2 -4 -11 5
-15 4 -16 -9 -5 -8 7 -15 8 -15 2 0 -5 6 -15 14 -21 11 -9 17 -6 31 16 12 18
14 28 6 31 -6 2 -9 8 -5 13 3 5 2 9 -3 8 -20 -3 -34 2 -28 11 3 6 -2 10 -12
10 -15 0 -16 2 -3 10 8 5 10 10 4 10 -6 0 -14 -3 -17 -7z"/>
<path d="M3211 4467 c2 -1 11 -8 20 -15 13 -9 16 -9 16 3 0 8 -9 15 -20 15
-11 0 -18 -1 -16 -3z"/>
<path d="M3870 4460 c8 -5 20 -10 25 -10 6 0 3 5 -5 10 -8 5 -19 10 -25 10 -5
0 -3 -5 5 -10z"/>
<path d="M2970 4450 c-13 -8 -12 -10 3 -10 9 0 17 5 17 10 0 12 -1 12 -20 0z"/>
<path d="M3727 4435 c3 -8 9 -12 14 -9 12 7 11 11 -5 17 -10 4 -13 1 -9 -8z"/>
<path d="M3910 4440 c-9 -6 -10 -10 -3 -10 6 0 15 5 18 10 8 12 4 12 -15 0z"/>
<path d="M2900 4429 c0 -5 5 -7 10 -4 6 3 10 8 10 11 0 2 -4 4 -10 4 -5 0 -10
-5 -10 -11z"/>
<path d="M3153 4423 c9 -11 14 -23 10 -28 -5 -4 -2 -5 5 -1 18 10 15 19 -10
35 -22 13 -23 13 -5 -6z"/>
<path d="M3326 4423 c-6 -14 -5 -15 5 -6 7 7 10 15 7 18 -3 3 -9 -2 -12 -12z"/>
<path d="M3787 4429 c7 -7 15 -10 18 -7 3 3 -2 9 -12 12 -14 6 -15 5 -6 -5z"/>
<path d="M3124 4405 c-4 -8 -1 -21 5 -29 14 -16 4 -27 -17 -18 -14 5 -15 3 -4
-10 7 -9 21 -14 32 -11 24 6 25 16 5 33 -17 14 -21 35 -5 25 6 -3 7 1 4 9 -8
20 -13 20 -20 1z"/>
<path d="M3200 4412 c0 -4 10 -9 22 -9 18 -2 20 0 8 7 -18 12 -30 13 -30 2z"/>
<path d="M3327 4396 c-17 -13 -16 -14 2 -19 15 -3 18 -1 14 11 -5 11 -3 13 7
7 9 -5 11 -4 6 3 -9 14 -7 14 -29 -2z"/>
<path d="M3844 4388 c1 -17 -6 -24 -29 -29 -16 -4 -24 -7 -18 -8 7 0 20 -16
28 -33 8 -18 13 -26 11 -17 -2 9 1 22 7 28 8 8 8 11 -2 11 -7 0 -10 4 -6 10 3
5 11 8 18 6 7 -1 9 -1 6 1 -3 2 -4 15 -1 28 2 14 0 25 -5 25 -5 0 -9 -10 -9
-22z"/>
<path d="M3693 4386 c0 -8 6 -12 15 -8 10 3 13 1 8 -6 -5 -8 -2 -10 9 -6 14 6
14 8 -2 20 -23 17 -30 17 -30 0z"/>
<path d="M3033 4352 c-16 -27 -4 -37 44 -38 25 0 38 3 30 8 -6 4 -21 8 -32 8
-20 1 -20 1 -1 15 11 8 15 15 8 15 -6 0 -18 -10 -28 -22 l-16 -23 6 28 c7 32
5 34 -11 9z"/>
<path d="M3640 4340 c6 -11 13 -20 16 -20 2 0 0 9 -6 20 -6 11 -13 20 -16 20
-2 0 0 -9 6 -20z"/>
<path d="M3758 4343 c-5 -18 -2 -23 14 -23 10 0 16 -4 13 -10 -3 -5 -4 -10 -1
-10 3 0 10 10 17 21 10 20 9 21 -9 17 -14 -4 -22 -1 -24 11 -3 12 -5 10 -10
-6z"/>
<path d="M3685 4330 c-3 -6 1 -7 9 -4 9 3 16 2 16 -2 0 -5 9 -20 19 -33 14
-18 20 -21 26 -11 6 9 4 11 -6 6 -8 -4 -7 -1 2 5 15 11 14 14 -3 31 -19 19
-53 24 -63 8z m50 -10 c3 -5 1 -10 -4 -10 -6 0 -11 5 -11 10 0 6 2 10 4 10 3
0 8 -4 11 -10z"/>
<path d="M3870 4333 c0 -6 8 -17 18 -24 16 -13 16 -13 2 6 -8 11 -16 22 -17
24 -2 2 -3 0 -3 -6z"/>
<path d="M3000 4294 c0 -7 13 -11 29 -10 44 2 47 13 7 18 -23 3 -36 0 -36 -8z"/>
<path d="M3078 4293 c-8 -29 6 -38 26 -17 20 19 21 31 2 15 -11 -10 -15 -8
-18 6 -3 15 -5 14 -10 -4z"/>
<path d="M3641 4301 c-8 -5 -11 -16 -8 -24 3 -9 1 -17 -5 -19 -6 -2 -8 -10 -4
-16 12 -21 23 -13 20 14 -2 19 1 24 13 20 10 -4 13 -2 10 8 -3 8 -1 17 6 20 8
3 6 5 -3 5 -8 0 -21 -3 -29 -8z"/>
<path d="M2862 4281 c2 -7 7 -12 11 -12 12 1 9 15 -3 20 -7 2 -11 -2 -8 -8z"/>
<path d="M3250 4270 c0 -4 9 -10 21 -13 12 -3 19 -1 17 5 -5 13 -38 20 -38 8z"/>
<path d="M3686 4271 c-4 -7 -5 -15 -2 -18 9 -9 19 4 14 18 -4 11 -6 11 -12 0z"/>
<path d="M2918 4178 c-5 -29 16 -48 26 -22 3 8 1 14 -4 14 -5 0 -10 8 -12 18
-3 12 -6 9 -10 -10z"/>
<path d="M6325 6260 c-3 -5 1 -10 11 -10 13 0 14 -3 5 -14 -8 -10 -9 -16 -1
-21 6 -3 7 -11 4 -17 -4 -7 -10 -5 -16 6 -5 9 -16 16 -25 16 -11 0 -14 -6 -9
-26 6 -24 5 -26 -14 -21 -12 3 -19 3 -16 0 3 -3 -2 -12 -12 -20 -15 -11 -13
-12 13 -2 16 5 35 15 42 20 7 6 16 8 21 5 14 -9 35 21 28 40 -4 9 -1 24 6 32
10 12 10 14 1 8 -7 -4 -13 -2 -13 3 0 14 -17 14 -25 1z m-5 -60 c0 -5 -4 -10
-10 -10 -5 0 -10 5 -10 10 0 6 5 10 10 10 6 0 10 -4 10 -10z"/>
<path d="M6150 6256 c0 -3 9 -10 20 -16 11 -6 20 -8 20 -6 0 3 -9 10 -20 16
-11 6 -20 8 -20 6z"/>
<path d="M6250 6250 c13 -9 13 -10 0 -11 -8 -1 -18 -1 -22 0 -5 0 -8 -3 -8 -9
0 -5 9 -10 20 -10 11 0 20 5 20 11 0 6 9 8 23 4 20 -5 20 -5 -3 9 -27 17 -55
22 -30 6z"/>
<path d="M6265 6210 c-3 -5 -1 -10 4 -10 6 0 11 5 11 10 0 6 -2 10 -4 10 -3 0
-8 -4 -11 -10z"/>
<path d="M6236 6197 c3 -10 9 -15 12 -12 3 3 0 11 -7 18 -10 9 -11 8 -5 -6z"/>
<path d="M6158 6163 c7 -3 16 -2 19 1 4 3 -2 6 -13 5 -11 0 -14 -3 -6 -6z"/>
<path d="M6205 6140 c-3 -6 1 -7 9 -4 18 7 21 14 7 14 -6 0 -13 -4 -16 -10z"/>
<path d="M6320 6139 c0 -5 5 -7 10 -4 6 3 10 8 10 11 0 2 -4 4 -10 4 -5 0 -10
-5 -10 -11z"/>
<path d="M6040 6136 c0 -2 9 -6 20 -9 11 -3 18 -1 14 4 -5 9 -34 13 -34 5z"/>
<path d="M6100 6130 c-9 -6 -10 -10 -3 -10 6 0 15 5 18 10 8 12 4 12 -15 0z"/>
<path d="M6162 6127 c-9 -11 -6 -19 12 -36 18 -17 26 -19 31 -10 5 7 4 10 -2
6 -5 -3 -17 3 -26 13 -11 13 -12 20 -4 23 7 2 9 7 6 11 -3 4 -11 0 -17 -7z"/>
<path d="M6250 6119 c0 -5 5 -7 10 -4 6 3 10 8 10 11 0 2 -4 4 -10 4 -5 0 -10
-5 -10 -11z"/>
<path d="M6062 6105 c4 -4 3 -14 -3 -22 -7 -8 -8 -13 -1 -13 15 0 23 28 9 36
-7 4 -9 4 -5 -1z"/>
<path d="M6096 6095 c4 -8 11 -15 16 -15 6 0 5 6 -2 15 -7 8 -14 15 -16 15 -2
0 -1 -7 2 -15z"/>
<path d="M6215 6100 c3 -5 8 -10 11 -10 2 0 4 5 4 10 0 6 -5 10 -11 10 -5 0
-7 -4 -4 -10z"/>
<path d="M6140 6070 c0 -6 4 -9 9 -6 5 4 12 1 14 -4 3 -6 4 -5 3 2 -3 15 -26
23 -26 8z"/>
<path d="M6030 6050 c-9 -6 -10 -10 -3 -10 6 0 15 5 18 10 8 12 4 12 -15 0z"/>
<path d="M6077 6047 c-4 -10 2 -14 19 -14 16 0 24 5 23 16 0 11 -2 12 -6 3 -4
-9 -9 -10 -18 -2 -9 8 -14 7 -18 -3z"/>
<path d="M6180 6051 c0 -5 5 -13 10 -16 6 -3 10 -2 10 4 0 5 -4 13 -10 16 -5
3 -10 2 -10 -4z"/>
<path d="M6174 6015 c10 -7 15 -18 11 -24 -3 -6 -1 -11 4 -11 6 0 11 6 11 13
0 16 -20 37 -34 37 -6 0 -3 -7 8 -15z"/>
<path d="M5965 6000 c3 -5 8 -10 11 -10 2 0 4 5 4 10 0 6 -5 10 -11 10 -5 0
-7 -4 -4 -10z"/>
<path d="M6010 6000 c0 -5 5 -10 11 -10 5 0 7 5 4 10 -3 6 -8 10 -11 10 -2 0
-4 -4 -4 -10z"/>
<path d="M5880 5981 c0 -6 4 -13 10 -16 6 -3 7 1 4 9 -7 18 -14 21 -14 7z"/>
<path d="M5946 5973 c-6 -14 -5 -15 5 -6 7 7 10 15 7 18 -3 3 -9 -2 -12 -12z"/>
<path d="M6107 5971 c-4 -17 -3 -21 5 -13 5 5 8 16 6 23 -3 8 -7 3 -11 -10z"/>
<path d="M6210 5980 c0 -5 5 -10 11 -10 5 0 7 5 4 10 -3 6 -8 10 -11 10 -2 0
-4 -4 -4 -10z"/>
<path d="M5983 5954 c-17 -18 -16 -31 2 -38 8 -3 15 -1 15 4 0 6 -5 10 -11 10
-8 0 -7 5 1 15 16 20 9 28 -7 9z"/>
<path d="M6013 5945 c0 -8 4 -12 9 -9 4 3 8 0 8 -5 0 -6 -4 -11 -10 -11 -5 0
-7 -7 -4 -15 4 -8 13 -15 21 -15 9 0 13 -6 10 -15 -9 -22 11 -28 22 -6 9 16 7
20 -15 25 -19 5 -24 11 -19 25 3 10 -1 23 -8 29 -10 9 -14 8 -14 -3z"/>
<path d="M6086 5937 c3 -10 9 -15 12 -12 3 3 0 11 -7 18 -10 9 -11 8 -5 -6z"/>
<path d="M5928 5933 c7 -3 16 -2 19 1 4 3 -2 6 -13 5 -11 0 -14 -3 -6 -6z"/>
<path d="M5927 5905 c3 -8 9 -12 14 -9 12 7 11 11 -5 17 -10 4 -13 1 -9 -8z"/>
<path d="M5875 5890 c-3 -5 -1 -10 4 -10 6 0 11 5 11 10 0 6 -2 10 -4 10 -3 0
-8 -4 -11 -10z"/>
<path d="M5796 5867 c3 -10 9 -15 12 -12 3 3 0 11 -7 18 -10 9 -11 8 -5 -6z"/>
<path d="M5930 5860 c18 -12 30 -13 30 -2 0 4 -10 9 -22 9 -18 2 -20 0 -8 -7z"/>
<path d="M5980 5835 c14 -17 13 -18 -3 -12 -10 4 -16 3 -12 -2 3 -5 -1 -11 -7
-14 -7 -2 2 -12 21 -21 22 -12 31 -13 25 -5 -4 8 -8 24 -8 38 -1 13 -8 26 -16
29 -13 5 -13 3 0 -13z"/>
<path d="M5900 5826 c0 -8 5 -18 10 -21 6 -3 10 1 10 9 0 8 -4 18 -10 21 -5 3
-10 -1 -10 -9z"/>
<path d="M5783 5793 c-19 -7 -16 -19 6 -19 11 0 17 5 14 13 -3 7 -6 13 -7 12
0 0 -7 -3 -13 -6z"/>
<path d="M5898 5783 c7 -3 16 -2 19 1 4 3 -2 6 -13 5 -11 0 -14 -3 -6 -6z"/>
<path d="M5920 5760 c-12 -12 -18 -25 -15 -30 4 -6 1 -10 -5 -10 -16 0 -44
-30 -35 -38 3 -4 11 1 16 11 6 9 14 15 20 12 5 -4 9 -1 9 5 0 6 5 8 10 5 6 -3
13 1 17 10 3 10 0 21 -8 26 -11 6 -8 9 9 9 12 0 22 5 22 10 0 16 -19 11 -40
-10z"/>
<path d="M5732 5747 c-7 -8 -6 -18 4 -31 8 -11 14 -29 14 -39 0 -19 1 -20 20
-2 18 16 20 16 20 2 0 -10 4 -17 8 -17 5 0 9 7 9 15 0 15 -10 19 -35 16 -8 -1
-16 7 -19 18 -3 12 -10 21 -15 21 -5 0 -7 4 -3 10 3 5 13 6 22 3 11 -4 14 -3
9 5 -9 15 -21 15 -34 -1z"/>
<path d="M5877 5743 c3 -7 6 -13 8 -13 2 0 5 6 8 13 3 8 -1 14 -8 14 -7 0 -11
-6 -8 -14z"/>
<path d="M5833 5734 c4 -7 0 -17 -8 -24 -12 -10 -15 -9 -15 4 0 9 -7 16 -15
16 -13 0 -12 -4 4 -22 11 -11 18 -25 15 -29 -3 -5 1 -6 9 -3 8 3 18 1 22 -5 3
-7 -2 -11 -14 -11 -11 0 -26 -7 -34 -15 -8 -8 -19 -11 -23 -7 -5 4 -5 3 -1 -3
5 -5 16 -10 25 -10 9 0 16 -6 15 -12 -4 -18 3 -16 31 8 23 20 23 23 10 55 -18
43 -18 45 4 37 18 -7 17 -5 -12 17 -11 8 -17 10 -13 4z"/>
<path d="M5700 5690 c0 -5 5 -10 11 -10 5 0 7 5 4 10 -3 6 -8 10 -11 10 -2 0
-4 -4 -4 -10z"/>
<path d="M5998 5682 c-10 -2 -18 -8 -18 -13 0 -11 11 -11 30 1 18 11 11 18
-12 12z"/>
<path d="M5644 5634 c1 -7 6 -17 11 -21 4 -4 5 -3 1 4 -3 7 1 13 11 15 15 3
15 5 -3 10 -15 4 -21 1 -20 -8z"/>
<path d="M5717 5623 c6 -15 13 -16 31 -4 10 6 7 10 -11 13 -18 4 -24 1 -20 -9z"/>
<path d="M5740 5596 c0 -9 5 -16 10 -16 6 0 10 4 10 9 0 6 -4 13 -10 16 -5 3
-10 -1 -10 -9z"/>
<path d="M5606 5585 c-9 -26 -7 -32 5 -12 6 10 9 21 6 23 -2 3 -7 -2 -11 -11z"/>
<path d="M5705 5589 c-4 -6 -4 -13 -1 -16 3 -4 6 -1 6 6 0 7 5 9 10 6 6 -4 8
-11 5 -16 -4 -5 -1 -9 4 -9 13 0 13 3 5 24 -7 18 -20 21 -29 5z"/>
<path d="M5570 5551 c0 -5 5 -13 10 -16 6 -3 10 -2 10 4 0 5 -4 13 -10 16 -5
3 -10 2 -10 -4z"/>
<path d="M5615 5540 c-5 -9 -4 -15 3 -18 7 -2 12 -10 12 -18 0 -9 -4 -12 -10
-9 -5 3 -10 1 -10 -4 0 -15 11 -13 33 3 15 12 16 16 4 23 -8 4 -16 15 -19 23
-4 12 -6 12 -13 0z"/>
<path d="M5592 5490 c0 -14 2 -19 5 -12 2 6 2 18 0 25 -3 6 -5 1 -5 -13z"/>
<path d="M5465 5470 c3 -5 8 -10 11 -10 2 0 4 5 4 10 0 6 -5 10 -11 10 -5 0
-7 -4 -4 -10z"/>
<path d="M5515 5450 c-17 -18 -17 -20 -2 -14 9 3 17 10 17 16 0 5 5 6 12 2 7
-4 8 -3 4 4 -9 16 -10 15 -31 -8z"/>
<path d="M5617 5459 c7 -7 15 -10 18 -7 3 3 -2 9 -12 12 -14 6 -15 5 -6 -5z"/>
<path d="M5457 5399 c7 -7 15 -10 18 -7 3 3 -2 9 -12 12 -14 6 -15 5 -6 -5z"/>
<path d="M5526 5377 c3 -10 9 -15 12 -12 3 3 0 11 -7 18 -10 9 -11 8 -5 -6z"/>
<path d="M5405 5370 c-3 -6 1 -7 9 -4 18 7 21 14 7 14 -6 0 -13 -4 -16 -10z"/>
<path d="M5470 5350 c0 -13 18 -22 24 -11 3 5 -1 11 -9 15 -8 3 -15 1 -15 -4z"/>
<path d="M5428 5333 c6 -2 12 -11 12 -19 0 -8 5 -14 10 -14 7 0 7 6 0 20 -6
11 -16 20 -23 19 -9 0 -9 -2 1 -6z"/>
<path d="M5355 5319 c-4 -6 -5 -12 -2 -15 2 -3 7 2 10 11 7 17 1 20 -8 4z"/>
<path d="M5386 5313 c-4 -10 -4 -14 0 -11 4 4 15 3 26 -3 18 -9 18 -8 8 10
-13 25 -26 27 -34 4z"/>
<path d="M5465 5290 c-3 -5 -1 -10 4 -10 6 0 11 5 11 10 0 6 -2 10 -4 10 -3 0
-8 -4 -11 -10z"/>
<path d="M5457 5264 c-3 -5 -1 -16 4 -24 8 -12 12 -12 16 -2 2 6 13 12 24 12
10 0 19 4 19 10 0 6 -9 6 -24 0 -17 -6 -26 -5 -29 3 -2 7 -6 7 -10 1z"/>
<path d="M5310 5239 c0 -5 5 -7 10 -4 6 3 10 8 10 11 0 2 -4 4 -10 4 -5 0 -10
-5 -10 -11z"/>
<path d="M5281 5221 c-10 -6 -10 -10 -1 -16 13 -8 24 -1 19 14 -3 6 -10 7 -18
2z"/>
<path d="M5320 5215 c-11 -13 -10 -14 4 -9 9 3 16 10 16 15 0 13 -6 11 -20 -6z"/>
<path d="M5253 5189 c-2 -23 3 -25 10 -4 4 8 3 16 -1 19 -4 3 -9 -4 -9 -15z"/>
<path d="M5190 5161 c0 -6 4 -13 10 -16 6 -3 7 1 4 9 -7 18 -14 21 -14 7z"/>
<path d="M5243 5116 c4 -10 7 -24 7 -32 0 -8 4 -14 9 -14 14 0 6 53 -9 58 -9
3 -11 -1 -7 -12z"/>
<path d="M5272 5064 c-14 -16 -5 -18 17 -5 7 5 9 11 5 14 -5 3 -15 -1 -22 -9z"/>
<path d="M5430 5149 c0 -5 -4 -7 -10 -4 -11 7 -13 -15 -4 -38 5 -14 44 -13 44
2 -1 33 -30 73 -30 40z"/>
<path d="M3420 4131 c0 -6 4 -13 10 -16 6 -3 7 1 4 9 -7 18 -14 21 -14 7z"/>
</g>
</svg>
